<?xml version="1.0" encoding="UTF-8"?>
<svg id="Layer_2" data-name="Layer 2" xmlns="http://www.w3.org/2000/svg" xmlns:xlink="http://www.w3.org/1999/xlink" viewBox="0 0 301.19 306.58">
  <defs>
    <style>
      .cls-1 {
        fill: none;
      }

      .cls-2 {
        fill-rule: evenodd;
      }

      .cls-2, .cls-3 {
        fill: #7b1d1a;
      }

      .cls-4 {
        fill: #21447a;
      }

      .cls-5 {
        fill: url(#linear-gradient-8);
      }

      .cls-6 {
        fill: url(#linear-gradient-7);
      }

      .cls-7 {
        fill: url(#linear-gradient-5);
      }

      .cls-8 {
        fill: url(#linear-gradient-6);
      }

      .cls-9 {
        fill: url(#linear-gradient-9);
      }

      .cls-10 {
        fill: url(#linear-gradient-4);
      }

      .cls-11 {
        fill: url(#linear-gradient-3);
      }

      .cls-12 {
        fill: url(#linear-gradient-2);
      }

      .cls-13 {
        fill: #1d3c71;
      }

      .cls-14 {
        fill: url(#linear-gradient);
      }

      .cls-15 {
        fill: #29639d;
      }

      .cls-16 {
        fill: #3f4247;
      }

      .cls-17 {
        fill: #233f7e;
      }

      .cls-18 {
        fill: #0b1453;
      }
    </style>
    <linearGradient id="linear-gradient" x1="96.57" y1="149.91" x2="66.77" y2="191.43" gradientUnits="userSpaceOnUse">
      <stop offset=".14" stop-color="#284a89"/>
      <stop offset=".98" stop-color="#1c2365"/>
    </linearGradient>
    <linearGradient id="linear-gradient-2" x1="266.51" y1="129.52" x2="279.05" y2="276.19" gradientTransform="translate(-5.9 300.84) scale(.98 -.98)" gradientUnits="userSpaceOnUse">
      <stop offset="0" stop-color="#9c151d"/>
      <stop offset="1" stop-color="#ff4249"/>
    </linearGradient>
    <linearGradient id="linear-gradient-3" x1="229.84" y1="169.44" x2="283.96" y2="256.72" gradientTransform="translate(-5.9 300.84) scale(.98 -.98)" gradientUnits="userSpaceOnUse">
      <stop offset="0" stop-color="#7a0605"/>
      <stop offset="1" stop-color="#c7232e"/>
    </linearGradient>
    <linearGradient id="linear-gradient-4" x1="38.75" y1="18.25" x2="56.33" y2="184.57" gradientUnits="userSpaceOnUse">
      <stop offset=".04" stop-color="#3465a5"/>
      <stop offset=".81" stop-color="#192666"/>
    </linearGradient>
    <linearGradient id="linear-gradient-5" x1="193.75" y1="151.22" x2="201.74" y2="271.35" gradientTransform="translate(-5.9 300.84) scale(.98 -.98)" gradientUnits="userSpaceOnUse">
      <stop offset="0" stop-color="#c21e2b"/>
      <stop offset="1" stop-color="#fb3f45"/>
    </linearGradient>
    <linearGradient id="linear-gradient-6" x1="64.32" y1="277.98" x2="78.08" y2="303.41" gradientTransform="translate(-5.9 300.84) scale(.98 -.98)" gradientUnits="userSpaceOnUse">
      <stop offset="0" stop-color="#2b508f"/>
      <stop offset="1" stop-color="#3770ad"/>
    </linearGradient>
    <linearGradient id="linear-gradient-7" x1="25.84" y1="164.52" x2="100.45" y2="31.87" gradientUnits="userSpaceOnUse">
      <stop offset=".1" stop-color="#343f8a"/>
      <stop offset=".92" stop-color="#317fc2"/>
    </linearGradient>
    <linearGradient id="linear-gradient-8" x1="154.65" y1="63.95" x2="148.63" y2="195.39" gradientUnits="userSpaceOnUse">
      <stop offset=".05" stop-color="#720f1b"/>
      <stop offset=".86" stop-color="#c4141f"/>
      <stop offset="1" stop-color="#d31620"/>
    </linearGradient>
    <linearGradient id="linear-gradient-9" x1="137.79" y1="165.58" x2="120.95" y2="189.04" xlink:href="#linear-gradient"/>
  </defs>
  <g id="Layer_1-2" data-name="Layer 1">
    <g>
      <g>
        <path class="cls-17" d="M126.51,97.91c-2.58,9.38-6.58,28.9-18,29.99-3.16.3-7.53-.05-10.82-.06l-8.73-.13h-24.25s0,0,0-.01c0,0,0-.02,0-.02h-1.33s-3.46.02-3.46.02h-5.54c1.08-3.42,2.38-6.74,3.88-9.92,1.04-2.21,2.16-4.34,3.37-6.37t.01-.01c.87-1.38,1.77-2.7,2.72-3.97.06-.09.13-.18.19-.26,1.54-2.05,3.06-4.17,4.56-6.3.29-.44.6-.87.92-1.31.35-.51.7-1,1.05-1.51.63-.1,1.55-.17,2.65-.22.03,0,.07,0,.1,0,.63-.03,1.33-.05,2.06-.06.06,0,.12,0,.18,0,.17,0,.34,0,.52-.01.11,0,.23,0,.35,0,.36,0,.73-.01,1.09-.02,2.33-.02,4.81-.01,6.9,0,.24,0,.48,0,.71,0s.44,0,.64,0c.37,0,.73,0,1.05.01h.12c.12,0,.24,0,.34,0,.21,0,.4,0,.57,0,.39,0,.76,0,1.14,0,.02-.01.03-.02.05-.03.16,0,.32,0,.48,0,.99,0,1.98,0,2.9,0,.37,0,.72,0,1.06.01.23,0,.45,0,.67,0s.41,0,.61,0c.35,0,.69,0,1,0,.16,0,.3,0,.44,0,.1,0,.2,0,.3,0h.25c.36,0,.73,0,1.09,0,9.26.04,18.92-.19,28.1.12Z"/>
        <path class="cls-14" d="M128.25,158.26l-2.12,31.45c-14.7.14-38.52.6-49.52-4.72.01.02.03.04.05.06-1.19-.46-2.36-.98-3.51-1.54-.08-.04-.17-.08-.25-.12-1.67-.82-3.29-1.73-4.85-2.73-.54-.35-1.08-.71-1.61-1.08-1.49-1.05-2.86-2.18-4.12-3.35-1.92-1.81-3.58-3.75-5-5.81-.02-.02-.03-.04-.03-.05-.18-.27-.36-.53-.53-.81-.01-.02-.03-.04-.03-.05-4.09-6.35-5.95-13.7-6.09-21.28,0-.07,0-.13,0-.2.06-3.55.46-7.14,1.16-10.69.02-.09.03-.18.05-.26.32-1.61.7-3.21,1.13-4.8.03-.12.07-.24.1-.37.4-1.42.83-2.83,1.32-4.22h5.54l-3.27.02h-.58s.02.15.04.21l.02.02c.06.23.13.46.2.67.08.24.14.46.2.66.38,1.23.74,2.26,1.11,3.22.02.05.04.1.06.15.81,2.06,1.74,3.8,3.25,6.31,0,.01.01.02.02.03.02.04.05.08.08.13.04.08.09.16.14.23.02.02.03.04.04.06.04.05.08.11.11.17.24.34.48.67.74.99l.04-.04c9.68,13.13,22.55,17.51,38.62,17.63,7.95.06,18.73.16,27.52.1Z"/>
        <path class="cls-15" d="M136.55,32.69l-2.09,31.05c-4.69.11-7.93.08-14.31.04-2.36-.02-4.73-.03-7.08-.04-2.31.13-5.61-.02-8,0,6.21-11.82,8.69-17.49,10.02-31.04l4.78.02h7.86s8.83-.02,8.83-.02Z"/>
      </g>
      <g>
        <g>
          <path class="cls-16" d="M6.38,217.05h35.54v8.64H15.93v13.18h24.63v8.64H15.93v14.55h27.36v8.64H6.38v-53.65Z"/>
          <path class="cls-16" d="M71.25,244.4c-1.77-2.47-4.14-3.71-7.12-3.71-1.21,0-2.4.3-3.56.91-1.16.61-1.74,1.59-1.74,2.96,0,1.11.48,1.92,1.44,2.42.96.51,2.17.94,3.64,1.29,1.46.35,3.04.72,4.74,1.1,1.69.38,3.27.96,4.74,1.74,1.46.78,2.68,1.86,3.64,3.22.96,1.36,1.44,3.23,1.44,5.61,0,2.17-.47,4-1.4,5.49-.94,1.49-2.15,2.69-3.64,3.6-1.49.91-3.17,1.57-5.04,1.97-1.87.4-3.74.61-5.61.61-2.83,0-5.43-.4-7.8-1.21-2.38-.81-4.5-2.27-6.37-4.4l6.06-5.68c1.16,1.31,2.41,2.39,3.75,3.22,1.34.83,2.97,1.25,4.89,1.25.66,0,1.34-.08,2.05-.23.71-.15,1.36-.4,1.97-.76.61-.35,1.1-.8,1.48-1.33s.57-1.15.57-1.86c0-1.26-.48-2.2-1.44-2.8-.96-.61-2.17-1.1-3.64-1.48-1.47-.38-3.04-.73-4.74-1.06-1.69-.33-3.27-.86-4.74-1.59-1.47-.73-2.68-1.75-3.64-3.07-.96-1.31-1.44-3.13-1.44-5.46,0-2.02.42-3.78,1.25-5.27s1.93-2.71,3.3-3.68c1.36-.96,2.93-1.67,4.7-2.12,1.77-.46,3.56-.68,5.38-.68,2.43,0,4.82.42,7.2,1.25,2.37.83,4.29,2.26,5.76,4.28l-6.06,5.46Z"/>
          <path class="cls-16" d="M94.59,239.4h.15c.71-1.52,1.96-2.89,3.75-4.13,1.79-1.24,4.1-1.86,6.93-1.86,2.42,0,4.48.41,6.18,1.21,1.69.81,3.07,1.87,4.13,3.18,1.06,1.31,1.82,2.83,2.27,4.55.45,1.72.68,3.51.68,5.38v22.96h-9.09v-18.41c0-1.01-.05-2.13-.15-3.37-.1-1.24-.37-2.4-.8-3.49-.43-1.09-1.1-2-2.01-2.73-.91-.73-2.15-1.1-3.71-1.1s-2.79.25-3.83.76c-1.04.5-1.89,1.19-2.58,2.05-.68.86-1.17,1.84-1.48,2.96-.3,1.11-.45,2.27-.45,3.49v19.85h-9.09v-57.29h9.09v25.99Z"/>
          <path class="cls-16" d="M128.61,234.32h8.64v5.68h.15c.81-1.72,2.11-3.25,3.9-4.58,1.79-1.34,4.21-2.01,7.24-2.01,5.71,0,9.5,2.25,11.37,6.74,1.31-2.32,2.96-4.03,4.93-5.11,1.97-1.09,4.32-1.63,7.05-1.63,2.43,0,4.47.41,6.14,1.21,1.67.81,3.02,1.92,4.05,3.33,1.04,1.42,1.78,3.07,2.24,4.96.46,1.89.68,3.93.68,6.1v21.67h-9.09v-20.61c0-1.11-.1-2.18-.3-3.22-.2-1.03-.56-1.94-1.06-2.73-.51-.78-1.19-1.4-2.04-1.86-.86-.46-1.97-.68-3.33-.68s-2.61.26-3.6.79c-.99.53-1.79,1.24-2.43,2.12-.63.88-1.09,1.89-1.36,3.03-.28,1.14-.42,2.29-.42,3.45v19.7h-9.09v-21.67c0-2.27-.48-4.08-1.44-5.42-.96-1.34-2.55-2.01-4.77-2.01-1.52,0-2.79.25-3.83.76-1.04.5-1.89,1.19-2.58,2.05-.68.86-1.17,1.84-1.48,2.96-.3,1.11-.45,2.27-.45,3.49v19.85h-9.09v-36.37Z"/>
          <path class="cls-16" d="M193.78,221.97c0-1.46.54-2.74,1.63-3.83,1.08-1.09,2.46-1.63,4.13-1.63s3.07.52,4.21,1.55c1.14,1.04,1.71,2.34,1.71,3.9s-.57,2.87-1.71,3.9-2.54,1.55-4.21,1.55-3.04-.54-4.13-1.63c-1.09-1.09-1.63-2.36-1.63-3.83ZM195.07,234.32h9.09v36.37h-9.09v-36.37Z"/>
          <path class="cls-16" d="M214.62,234.32h8.64v5.83h.15c.86-1.82,2.17-3.4,3.94-4.74,1.77-1.34,4.17-2.01,7.2-2.01,2.42,0,4.48.41,6.18,1.21,1.69.81,3.07,1.87,4.13,3.18,1.06,1.31,1.82,2.83,2.27,4.55.46,1.72.68,3.51.68,5.38v22.96h-9.09v-18.41c0-1.01-.05-2.13-.15-3.37-.1-1.24-.37-2.4-.8-3.49-.43-1.09-1.1-2-2.01-2.73-.91-.73-2.15-1.1-3.71-1.1s-2.79.25-3.83.76c-1.04.5-1.89,1.19-2.58,2.05-.68.86-1.17,1.84-1.48,2.96-.3,1.11-.45,2.27-.45,3.49v19.85h-9.09v-36.37Z"/>
          <path class="cls-16" d="M286.91,265.24h-.15c-1.31,2.22-3.08,3.84-5.3,4.85-2.22,1.01-4.62,1.52-7.2,1.52-2.83,0-5.34-.49-7.54-1.48-2.2-.98-4.08-2.34-5.65-4.05-1.57-1.72-2.75-3.74-3.56-6.06-.81-2.32-1.21-4.82-1.21-7.5s.43-5.18,1.29-7.5c.86-2.32,2.06-4.34,3.6-6.06,1.54-1.72,3.4-3.07,5.57-4.05,2.17-.98,4.55-1.48,7.12-1.48,1.72,0,3.23.18,4.55.53,1.31.35,2.47.81,3.49,1.36,1.01.56,1.87,1.15,2.58,1.78.71.63,1.29,1.25,1.74,1.86h.23v-25.54h9.09v57.29h-8.64v-5.46ZM265.39,252.51c0,1.42.24,2.78.72,4.09.48,1.31,1.19,2.48,2.12,3.49.93,1.01,2.06,1.82,3.37,2.42,1.31.61,2.8.91,4.47.91s3.16-.3,4.47-.91c1.31-.61,2.44-1.41,3.37-2.42.93-1.01,1.64-2.17,2.12-3.49.48-1.31.72-2.68.72-4.09s-.24-2.78-.72-4.09c-.48-1.31-1.19-2.47-2.12-3.49-.94-1.01-2.06-1.82-3.37-2.42-1.31-.61-2.8-.91-4.47-.91s-3.16.3-4.47.91c-1.31.61-2.44,1.42-3.37,2.42-.94,1.01-1.64,2.17-2.12,3.49-.48,1.31-.72,2.68-.72,4.09Z"/>
        </g>
        <g>
          <path class="cls-16" d="M0,285.98h1.91l5.36,7.54h.16l5.36-7.54h1.91l-6.52,9v6.88h-1.64v-6.88l-6.52-9Z"/>
          <path class="cls-16" d="M22.89,302.11c-1.17,0-2.21-.26-3.1-.78-.9-.52-1.6-1.25-2.11-2.17-.51-.92-.76-1.99-.76-3.2s.25-2.29.76-3.22c.51-.93,1.21-1.65,2.11-2.17.9-.52,1.93-.78,3.1-.78s2.2.26,3.1.78c.89.52,1.6,1.25,2.1,2.17.51.92.76,2,.76,3.22s-.25,2.28-.76,3.2c-.51.92-1.21,1.65-2.1,2.17-.9.52-1.93.78-3.1.78ZM22.89,300.85c.94,0,1.74-.22,2.39-.67.65-.44,1.15-1.04,1.49-1.78.34-.74.51-1.55.51-2.44s-.17-1.71-.51-2.45c-.34-.74-.83-1.34-1.49-1.79-.65-.45-1.45-.67-2.39-.67s-1.73.22-2.39.67c-.66.45-1.15,1.05-1.49,1.79s-.51,1.56-.51,2.45.17,1.7.51,2.44.83,1.33,1.49,1.78c.65.45,1.45.67,2.39.67Z"/>
          <path class="cls-16" d="M41.07,297.31v-7.36h1.57v11.91h-1.57v-1.98h-.12c-.32.61-.82,1.12-1.51,1.52-.69.41-1.53.61-2.52.61-.86,0-1.63-.17-2.3-.5-.67-.33-1.2-.82-1.58-1.47-.38-.65-.57-1.44-.57-2.38v-7.72h1.57v7.63c0,.93.31,1.68.94,2.25.62.57,1.42.85,2.4.85.61,0,1.2-.13,1.77-.39.56-.26,1.03-.64,1.39-1.14s.55-1.11.55-1.84Z"/>
          <path class="cls-16" d="M46.93,301.86v-11.91h1.53v1.83h.11c.27-.6.74-1.08,1.42-1.45.67-.37,1.44-.55,2.29-.55.13,0,.27,0,.43,0,.16,0,.29.01.4.02v1.4c-.07,0-.19-.03-.37-.05-.18-.02-.37-.03-.57-.03-.71,0-1.33.13-1.88.39-.55.26-.98.62-1.3,1.08-.32.46-.48.98-.48,1.57v7.69h-1.57Z"/>
          <path class="cls-16" d="M73.23,289.95c-.1-.88-.54-1.59-1.33-2.11-.79-.52-1.78-.78-2.97-.78-.84,0-1.58.13-2.22.38-.64.25-1.14.6-1.5,1.05s-.54.96-.54,1.52c0,.42.1.79.31,1.1s.48.59.83.81.74.42,1.17.58.86.29,1.29.4l1.91.48c.58.14,1.15.32,1.73.54.58.22,1.1.49,1.58.82.48.33.87.73,1.16,1.2.29.47.44,1.04.44,1.7,0,.85-.25,1.61-.75,2.29-.5.68-1.22,1.21-2.15,1.61s-2.06.59-3.36.59c-1.23,0-2.3-.18-3.2-.54-.91-.36-1.62-.86-2.14-1.49s-.81-1.37-.87-2.21h1.69c.06.62.29,1.16.71,1.59.41.43.95.76,1.61.99.66.23,1.39.34,2.21.34.9,0,1.7-.13,2.41-.4.7-.27,1.26-.64,1.66-1.12.4-.48.6-1.04.6-1.67,0-.54-.16-.99-.48-1.35s-.76-.67-1.33-.92-1.23-.47-1.97-.66l-2.16-.56c-1.42-.37-2.52-.89-3.3-1.54-.78-.66-1.17-1.49-1.17-2.51,0-.85.26-1.6.78-2.25.52-.65,1.23-1.16,2.12-1.52.89-.36,1.89-.55,3-.55s2.12.18,2.98.54c.87.36,1.55.86,2.06,1.49.51.63.78,1.35.82,2.16h-1.6Z"/>
          <path class="cls-16" d="M84.21,289.95v1.2h-6.47v-1.2h6.47ZM79.76,287.1h1.58v11.66c0,.5.1.89.29,1.17.19.28.45.48.76.6s.64.17,1,.17c.21,0,.38-.01.53-.04s.28-.05.39-.07l.34,1.25c-.15.05-.34.1-.56.14s-.5.07-.83.07c-.58,0-1.13-.11-1.66-.33-.53-.22-.97-.55-1.31-.99-.34-.44-.51-.98-.51-1.64v-11.98Z"/>
          <path class="cls-16" d="M87.93,301.86v-11.91h1.53v1.83h.11c.27-.6.74-1.08,1.42-1.45.67-.37,1.44-.55,2.29-.55.13,0,.27,0,.43,0,.16,0,.29.01.4.02v1.4c-.07,0-.19-.03-.37-.05-.18-.02-.37-.03-.57-.03-.71,0-1.33.13-1.88.39-.55.26-.98.62-1.3,1.08-.32.46-.48.98-.48,1.57v7.69h-1.57Z"/>
          <path class="cls-16" d="M100.72,302.14c-.82,0-1.56-.14-2.24-.42-.68-.28-1.21-.69-1.62-1.23-.4-.54-.6-1.19-.6-1.95,0-.59.13-1.09.38-1.49s.61-.73,1.08-.99c.46-.26,1.01-.46,1.65-.61.64-.15,1.34-.27,2.1-.35.76-.08,1.4-.16,1.93-.22.53-.06.93-.16,1.2-.29.28-.13.41-.35.41-.65v-.28c0-.81-.27-1.45-.83-1.92-.55-.47-1.34-.7-2.37-.7s-1.77.19-2.39.57c-.61.38-1.05.82-1.29,1.33l-1.49-.47c.31-.65.73-1.17,1.27-1.56.54-.39,1.15-.67,1.82-.85.67-.17,1.35-.26,2.04-.26.52,0,1.06.06,1.62.18.56.12,1.08.32,1.57.62s.87.7,1.17,1.22c.3.52.45,1.18.45,1.97v8.09h-1.57v-1.88h-.1c-.19.35-.47.69-.84,1.02-.37.33-.84.6-1.39.81s-1.21.32-1.97.32ZM100.94,300.87c.84,0,1.56-.16,2.17-.49.61-.33,1.08-.76,1.42-1.3s.5-1.14.5-1.79v-1.72c-.12.1-.31.19-.59.26-.27.08-.59.15-.94.21s-.71.11-1.06.15c-.35.04-.67.08-.95.11-.77.08-1.42.21-1.96.39s-.96.42-1.24.72c-.29.31-.43.7-.43,1.18,0,.72.29,1.28.88,1.68s1.33.59,2.22.59Z"/>
          <path class="cls-16" d="M116.26,289.95v1.2h-6.47v-1.2h6.47ZM111.81,287.1h1.58v11.66c0,.5.1.89.29,1.17.19.28.45.48.76.6s.64.17,1,.17c.21,0,.38-.01.53-.04s.28-.05.39-.07l.34,1.25c-.15.05-.34.1-.56.14s-.5.07-.83.07c-.58,0-1.13-.11-1.66-.33-.53-.22-.97-.55-1.31-.99-.34-.44-.51-.98-.51-1.64v-11.98Z"/>
          <path class="cls-16" d="M125.45,302.11c-1.27,0-2.36-.26-3.28-.78s-1.64-1.24-2.14-2.16c-.5-.92-.75-1.99-.75-3.19s.25-2.27.75-3.2c.5-.93,1.2-1.66,2.09-2.19.89-.53,1.92-.79,3.09-.79.74,0,1.44.12,2.13.35.68.24,1.3.59,1.84,1.08s.98,1.09,1.29,1.82c.32.73.48,1.6.48,2.59v.68h-10.59v-1.22h8.99c0-.77-.18-1.45-.53-2.07-.35-.61-.84-1.1-1.46-1.45-.62-.36-1.34-.54-2.15-.54-.86,0-1.62.2-2.27.6-.65.4-1.16.94-1.53,1.6s-.55,1.39-.56,2.17v.73c0,.95.19,1.77.56,2.48.37.71.9,1.25,1.59,1.64s1.5.58,2.44.58c.64,0,1.2-.09,1.69-.26.49-.17.89-.41,1.23-.71.33-.3.58-.62.75-.98l1.49.43c-.21.5-.54.96-1.01,1.39-.47.42-1.05.76-1.75,1.02s-1.5.38-2.41.38Z"/>
          <path class="cls-16" d="M139.72,306.58c-.92,0-1.73-.1-2.43-.31-.69-.21-1.28-.5-1.76-.86-.48-.36-.85-.77-1.11-1.22l1.29-.74c.19.3.45.59.78.88.33.29.75.53,1.28.72.53.19,1.18.29,1.95.29,1.2,0,2.17-.26,2.91-.79.74-.53,1.11-1.35,1.11-2.46v-2.68h-.14c-.18.36-.44.72-.79,1.08s-.79.66-1.34.9c-.55.24-1.23.36-2.04.36-1.08,0-2.04-.24-2.88-.71s-1.5-1.14-1.98-2.02c-.48-.88-.72-1.92-.72-3.14s.23-2.26.7-3.18,1.12-1.63,1.96-2.14c.84-.51,1.82-.77,2.94-.77.83,0,1.52.13,2.07.38s.99.57,1.32.95c.33.38.59.74.78,1.1h.16v-2.27h1.54v12.22c0,1.01-.24,1.84-.73,2.49s-1.15,1.13-1.99,1.45c-.84.31-1.8.47-2.87.47ZM139.62,300.48c.87,0,1.62-.18,2.23-.55.62-.37,1.09-.9,1.42-1.59.33-.69.49-1.52.49-2.47s-.16-1.76-.49-2.48c-.32-.72-.79-1.29-1.41-1.71-.62-.42-1.37-.62-2.26-.62s-1.67.21-2.29.64c-.62.43-1.09,1.01-1.41,1.73-.32.73-.48,1.54-.48,2.43s.16,1.71.49,2.41c.32.7.8,1.24,1.42,1.63.62.39,1.38.58,2.28.58Z"/>
          <path class="cls-16" d="M150.46,287.9c-.32,0-.6-.1-.83-.29-.23-.19-.34-.43-.34-.7s.12-.51.35-.7c.23-.19.51-.29.83-.29s.6.1.83.29c.23.19.34.43.34.7s-.12.51-.35.7c-.23.19-.51.29-.83.29ZM149.65,301.86v-11.91h1.58v11.91h-1.58Z"/>
          <path class="cls-16" d="M160.84,302.11c-1.21,0-2.27-.27-3.16-.8s-1.59-1.26-2.09-2.19c-.49-.92-.74-1.98-.74-3.16s.25-2.26.75-3.19c.5-.93,1.2-1.66,2.1-2.19.89-.53,1.93-.79,3.12-.79.91,0,1.73.15,2.46.46.74.31,1.34.74,1.82,1.29s.78,1.2.9,1.94h-1.59c-.16-.67-.56-1.25-1.19-1.73-.63-.48-1.42-.72-2.39-.72-.86,0-1.63.21-2.29.62-.67.41-1.18.98-1.56,1.71s-.56,1.58-.56,2.54.18,1.82.55,2.56c.36.74.88,1.32,1.54,1.74.66.42,1.44.63,2.33.63.6,0,1.15-.1,1.65-.3.5-.2.91-.48,1.25-.85s.57-.8.68-1.31h1.59c-.12.72-.41,1.36-.87,1.92-.46.56-1.06,1-1.79,1.32-.73.32-1.57.48-2.51.48Z"/>
          <path class="cls-16" d="M176.99,301.86v-15.88h1.65v7.28h10.26v-7.28h1.65v15.88h-1.65v-7.3h-10.26v7.3h-1.65Z"/>
          <path class="cls-16" d="M195.5,301.86v-15.88h5.83c1.28,0,2.35.2,3.22.61.86.41,1.51.97,1.95,1.68.44.72.66,1.54.66,2.46s-.22,1.74-.66,2.45c-.44.71-1.09,1.26-1.95,1.66s-1.92.6-3.2.6h-4.97v-1.33h4.92c.94,0,1.73-.14,2.35-.41.63-.27,1.09-.66,1.4-1.17.31-.51.46-1.11.46-1.8s-.16-1.3-.47-1.82-.78-.92-1.41-1.21c-.63-.28-1.42-.43-2.37-.43h-4.14v14.58h-1.65ZM203.47,294.7l4.45,7.17h-1.91l-4.4-7.17h1.86Z"/>
          <path class="cls-16" d="M218.47,301.86v-15.88h5.83c1.28,0,2.36.22,3.22.65s1.51,1.02,1.95,1.76c.44.74.66,1.57.66,2.5s-.22,1.76-.65,2.5-1.08,1.33-1.94,1.76-1.93.65-3.2.65h-4.59v-1.3h4.54c.95,0,1.73-.16,2.36-.47.62-.31,1.09-.74,1.4-1.28s.46-1.16.46-1.85-.15-1.31-.46-1.85-.78-.97-1.4-1.28c-.63-.31-1.42-.46-2.38-.46h-4.14v14.58h-1.65Z"/>
          <path class="cls-16" d="M237.62,302.14c-.82,0-1.57-.14-2.24-.42-.68-.28-1.21-.69-1.62-1.23s-.6-1.19-.6-1.95c0-.59.13-1.09.38-1.49s.61-.73,1.08-.99c.46-.26,1.01-.46,1.65-.61.64-.15,1.33-.27,2.1-.35.76-.08,1.4-.16,1.93-.22.53-.06.93-.16,1.2-.29.28-.13.42-.35.42-.65v-.28c0-.81-.27-1.45-.83-1.92-.55-.47-1.34-.7-2.37-.7s-1.77.19-2.39.57c-.61.38-1.04.82-1.29,1.33l-1.49-.47c.31-.65.73-1.17,1.27-1.56.54-.39,1.15-.67,1.82-.85.67-.17,1.35-.26,2.04-.26.52,0,1.06.06,1.62.18s1.08.32,1.57.62.87.7,1.17,1.22.45,1.18.45,1.97v8.09h-1.57v-1.88h-.1c-.19.35-.47.69-.84,1.02-.37.33-.83.6-1.39.81s-1.21.32-1.97.32ZM237.83,300.87c.84,0,1.56-.16,2.17-.49.61-.33,1.08-.76,1.42-1.3.33-.54.5-1.14.5-1.79v-1.72c-.12.1-.31.19-.59.26-.27.08-.59.15-.94.21s-.71.11-1.06.15c-.35.04-.67.08-.95.11-.77.08-1.42.21-1.96.39-.54.18-.96.42-1.25.72s-.43.7-.43,1.18c0,.72.29,1.28.88,1.68s1.33.59,2.21.59Z"/>
          <path class="cls-16" d="M247.82,301.86v-11.91h1.53v1.83h.11c.27-.6.74-1.08,1.42-1.45.67-.37,1.44-.55,2.29-.55.13,0,.27,0,.43,0,.16,0,.29.01.4.02v1.4c-.07,0-.19-.03-.37-.05-.18-.02-.37-.03-.57-.03-.71,0-1.33.13-1.88.39-.55.26-.98.62-1.3,1.08-.32.46-.48.98-.48,1.57v7.69h-1.57Z"/>
          <path class="cls-16" d="M262.17,289.95v1.2h-6.47v-1.2h6.47ZM257.72,287.1h1.58v11.66c0,.5.1.89.29,1.17.19.28.45.48.76.6s.64.17,1,.17c.21,0,.38-.01.53-.04.15-.02.28-.05.39-.07l.33,1.25c-.15.05-.34.1-.57.14-.22.04-.5.07-.83.07-.58,0-1.13-.11-1.66-.33-.53-.22-.97-.55-1.31-.99-.34-.44-.51-.98-.51-1.64v-11.98Z"/>
          <path class="cls-16" d="M267.45,294.42v7.45h-1.57v-11.91h1.53v1.87h.14c.32-.61.81-1.1,1.49-1.47.67-.37,1.51-.55,2.5-.55.91,0,1.71.17,2.4.5.69.33,1.23.82,1.62,1.47s.58,1.44.58,2.38v7.72h-1.57v-7.63c0-.98-.31-1.75-.93-2.32s-1.45-.85-2.49-.85c-.71,0-1.34.13-1.9.4-.55.27-.99.66-1.31,1.16-.32.5-.48,1.1-.48,1.79Z"/>
          <path class="cls-16" d="M285.92,302.11c-1.27,0-2.36-.26-3.28-.78s-1.64-1.24-2.14-2.16c-.5-.92-.75-1.99-.75-3.19s.25-2.27.75-3.2c.5-.93,1.2-1.66,2.09-2.19.89-.53,1.92-.79,3.09-.79.73,0,1.44.12,2.13.35.68.24,1.29.59,1.84,1.08s.98,1.09,1.29,1.82c.32.73.48,1.6.48,2.59v.68h-10.59v-1.22h8.99c0-.77-.18-1.45-.53-2.07-.35-.61-.84-1.1-1.46-1.45-.62-.36-1.34-.54-2.15-.54-.86,0-1.62.2-2.27.6-.65.4-1.16.94-1.53,1.6-.37.66-.55,1.39-.56,2.17v.73c0,.95.19,1.77.56,2.48.37.71.91,1.25,1.59,1.64s1.5.58,2.45.58c.64,0,1.2-.09,1.69-.26.49-.17.89-.41,1.23-.71.33-.3.58-.62.76-.98l1.49.43c-.21.5-.54.96-1.01,1.39-.47.42-1.05.76-1.75,1.02s-1.5.38-2.4.38Z"/>
          <path class="cls-16" d="M295.01,301.86v-11.91h1.53v1.83h.11c.27-.6.74-1.08,1.42-1.45.67-.37,1.44-.55,2.29-.55.13,0,.27,0,.43,0,.16,0,.29.01.4.02v1.4c-.07,0-.19-.03-.37-.05s-.37-.03-.57-.03c-.71,0-1.33.13-1.88.39-.55.26-.98.62-1.3,1.08-.32.46-.48.98-.48,1.57v7.69h-1.57Z"/>
        </g>
      </g>
      <path class="cls-13" d="M86.45,34.6c-4.2,8-10.73,14.72-18.8,19.21-5.45,3.04-11.62,5.05-18.25,5.77-2.4.26-4.78.34-7.12.25,3.87-7.37,9.71-13.65,16.92-18.1,5.99-3.71,12.93-6.15,20.46-6.91,2.29-.23,4.56-.3,6.79-.21Z"/>
      <path class="cls-12" d="M262.34,40.48c8.29-6.23,23.69-7.7,33.67-7.66l-.12,100.8c-.04,13.87.49,30.02,0,43.56.2,3.47.02,8.93,0,12.53-11.29-1.21-17.62-5.34-24.89-13.57-10.2-13.68-8.34-24.56-8.28-40.7l.46-46.8c-1.47,3.17-3.52,6.57-5.28,9.63-7.88,16.1-16.65,31.43-25,47.27-3.55-4.84-14.62-27.68-16.02-33.71,3.39-8.33,9.96-19.04,14.41-27.17,9.18-16.78,14.84-32.96,31.07-44.2Z"/>
      <path class="cls-11" d="M262.25,40.55c-2.52,4.12-3.79,9.05-4.62,12.43-3.36,12.14-2.56,24.03-1.65,36.73.35,2.76.69,6.33,1.83,8.74-7.86,16.13-16.61,31.49-24.94,47.37-3.54-4.85-14.58-27.74-15.99-33.77,3.38-8.34,9.94-19.08,14.37-27.22,9.16-16.81,14.8-33.02,30.99-44.29Z"/>
      <path class="cls-10" d="M75.49,80.17c-5.64,8.15-9.61,13.34-13.15,18.23-3.9,5.39-7.27,10.41-11.75,18.62-3.52,6.46-5.9,12.24-6.68,18.83-.13,1.11-.28,2.7-.34,4.67-1.25,11.59,1.34,23.26,9.82,34.25,0,0,.01.02.02.03,1.03,1.32,2.13,2.64,3.33,3.94-1.05-.59-2.06-1.24-3.04-1.95-26.73-18.75-35.67-43.2-29.56-74.73.57-2.96,1.14-5.77,1.68-8.46.33-1.63.66-3.22.97-4.77,1.86-9.27,3.35-17.32,3.86-25.88.26-4.34.26-8.8-.07-13.62-.26-3.72-.71-7.65-1.41-11.89-.11-.68-.22-1.36-.34-2.06-1.98-5.27-3.65-10.23-6.13-14.98-1.14-2.19-2.46-4.33-4.06-6.44-1.72-2.28-3.79-4.28-5.54-6.56C10.45,4.92,7.78,2.34,5,0c23.64,6.2,39.62,21.67,46.87,44.68.03.1.06.21.1.31t0,0c.65,2.17,1.1,4.42,1.32,6.74,3.59.06,7.24-.68,10.78-1.98,6.25,4.48,10.74,11.41,11.92,19.62.53,3.71.34,7.36-.47,10.8Z"/>
      <path class="cls-7" d="M142.18,32.63c35.77.37,43.71,13.7,57.74,43.39,3.62,7.62,7.18,15.26,10.69,22.93,1.53,3.33,4.4,10.09,6.21,13.01,1.42,6.03,12.55,28.9,16.12,33.75-6.28,11.77-20.92,13.86-31.03,5.09-3.05-2.64-6.85-11.67-8.69-15.52l-15.38-32.61c-2.48-5.15-5.48-12.22-8.78-16.68l-.28-.37c-2.68-9.27-6.85-18.09-10.48-27-4.06-9.96-8.8-18.01-16.12-25.98Z"/>
      <path class="cls-18" d="M56.69,127.7c-.2,0-.41.01-.61.02.09.32.17.62.25.89.08.24.14.46.2.66.13.42.25.76.35,1.02.16.44.48,1.33.8,2.12.02.05.04.1.05.15.82,2.06,1.74,3.81,3.25,6.33,0,.03-.01.07-.02.1-.46,2.84-.7,5.75-.7,8.72,0,13.54,4.46,26.16,12.62,35.69.02.02.04.04.05.06-1.76-.84-3.32-1.77-4.9-2.79-.44-.28-.89-.57-1.33-.87-1.63-1.09-3.08-2.29-4.4-3.56-1.9-1.83-3.51-3.79-4.96-5.79-.02-.02-.03-.04-.03-.05-.16-.23-.35-.51-.56-.82-.01-.02-.03-.04-.03-.05-4.09-6.35-5.95-13.7-6.09-21.28,0-.07,0-.13,0-.2.06-3.55.46-7.14,1.16-10.69.02-.09.03-.18.05-.26.38-1.8.79-3.42,1.17-4.89.02-.09.05-.18.07-.28.4-1.42.83-2.83,1.32-4.22,1.08-3.42,2.38-6.74,3.88-9.92,1.04-2.21,2.16-4.34,3.37-6.37t.01-.01c.87-1.38,1.77-2.7,2.72-3.97.06-.09.13-.18.19-.26,1.54-2.05,3.06-4.17,4.56-6.3.29-.44.6-.87.92-1.31.35-.51.7-1,1.05-1.51.63-.1,1.55-.17,2.65-.22.03,0,.07,0,.1,0,.63-.03,1.33-.05,2.06-.06.06,0,.12,0,.18,0,.17,0,.34,0,.52-.01.11,0,.23,0,.35,0,.36,0,.73-.01,1.09-.02,2.33-.02,4.81-.01,6.9,0,.24,0,.48,0,.71,0s.44,0,.64,0c.37,0,.73,0,1.05.01h.12c.12,0,.24,0,.34,0,.21,0,.4,0,.57,0,.39,0,.76,0,1.14,0,.02-.01.03-.02.05-.03.16,0,.32,0,.48,0,.99,0,1.98,0,2.9,0-10.67,4.89-20.69,14.12-28.88,29.93-2.06.01-4.12.02-6.17.03-.41,0-.82,0-1.24,0Z"/>
      <path class="cls-4" d="M115.1,32.69c-.04,13.3-1.84,19.5-6.88,31.07-2.15-.01-4.33.07-6.46.07-2.21,0-5.04-.04-7.21-.02,5.64-11.82,7.88-17.65,9.09-31.2l4.33.09h7.14Z"/>
      <path class="cls-8" d="M61.54,2.39c8.07-1.12,15.52,4.49,16.67,12.55,1.15,8.06-4.44,15.54-12.49,16.72-8.1,1.18-15.62-4.44-16.77-12.54-1.16-8.1,4.49-15.6,12.59-16.73Z"/>
      <path class="cls-6" d="M92.69,50.16c-4.08,11.61-10.29,20.37-16.29,29.09-12.33,17.91-16.84,21.84-25.54,37.77-3.52,6.46-5.9,12.24-6.68,18.83-.13,1.07-.27,2.59-.34,4.46,0,.14-.01.28-.03.42-.94,9,1.08,16.38,1.08,16.38,1.87,8.06,5.95,14.26,8.33,17.45.6.74,1.2,1.48,1.79,2.23-3.55-2.32-8.87-6.42-13.52-12.98-1.19-1.68-7.1-10.24-8.92-23.27-1.99-14.31,2.17-25.68,6.22-36.77,4.83-13.23,8.83-17.12,12.2-29.06,1.38-4.87,3.21-13.04,2.27-22.97,0-.04,0-.08,0-.1,4.66-.77,12.5-2.65,20.71-7.82,0,0,0,0,0,0,1.06-.67,2.13-1.39,3.2-2.18,1.76-1.29,3.37-2.64,4.85-4.01,0,0,0,0,0,0,8.91-8.29,12.95-17.62,14.61-22.27.11-.31.21-.6.3-.87,1.34,16.33-1.7,28.39-4.26,35.68Z"/>
      <line class="cls-1" x1="133.87" y1="160.01" x2="132.71" y2="178.02"/>
      <path class="cls-5" d="M169.46,103.79c-.03,13.03-.92,26.08-1.2,39.07-.44,8.46-.57,16.31-4.31,24.1-2.96,6.17-6.73,10.12-8.32,11.65,0,0-.23.21-.45.42-5.05,4.7-16.08,8.74-23.49,11.11-.02,0-.03.01-.04.02.78-11.79,1.57-23.6,2.36-35.39.12-1.74.23-3.47.35-5.2l.21-3.11c.25.12.52.19.8.2l6.22.19c.9.03,1.71-.55,2-1.42l1.48-4.45c1.8-.46,3.52-1.13,5.13-1.99l3.99,2.33c.78.45,1.76.33,2.42-.3l4.53-4.35c.66-.63.83-1.62.43-2.44l-2.03-4.21c.93-1.59,1.7-3.3,2.26-5.11l4.44-1.24c.87-.24,1.48-1.03,1.5-1.95l.19-6.34c.03-.92-.54-1.75-1.39-2.04l-4.36-1.5c-.45-1.83-1.1-3.59-1.94-5.23l2.28-4.08c.45-.8.33-1.8-.28-2.47l-4.26-4.62c-.62-.67-1.59-.84-2.39-.44l-4.13,2.08c-1.56-.95-3.23-1.73-5-2.29l-1.21-4.53c-.24-.89-1.01-1.51-1.91-1.54l-4.92-.15.37-5.57,3.36-50.29s.01-.05.02-.08c7.51,8.01,12.37,16.1,16.54,26.1,3.73,8.95,8.01,17.82,10.75,27.13.53,6.25.01,11.7,0,17.92Z"/>
      <g>
        <polygon class="cls-2" points="146.21 115.03 146.17 118.59 143.22 118.59 123.45 118.58 123.45 118.56 126.3 115.02 143.01 115.02 146.21 115.03"/>
        <circle class="cls-3" cx="147.57" cy="116.9" r="3.67"/>
      </g>
      <rect class="cls-3" x="136.97" y="93.27" width="6.65" height="3.63" transform="translate(235.39 -45.21) rotate(90)"/>
      <rect class="cls-3" x="135.97" y="137.92" width="6.65" height="3.63" transform="translate(279.04 .44) rotate(90)"/>
      <path class="cls-9" d="M134.08,154.78l-2.39,35.37s-.03.01-.04.02c.78-11.79,1.57-23.6,2.36-35.39h.07Z"/>
      <path class="cls-2" d="M132.25,101.95l-.38-5.81c2.08-.43,5.53-.88,9.66-.09,2.17.41,7.7,1.54,12.38,6.38,1.17,1.21,5.52,5.85,6,13.22.49,7.52-3.39,12.76-4.59,14.35-1.1,1.44-3.8,4.88-8.72,6.84-6.89,2.75-13.13.63-14.82,0l.47-5.63c1.11.45,6.47,2.48,12.38,0,4.86-2.04,7.13-5.9,7.78-7.03.78-1.37,2.44-4.37,2.16-8.44-.27-3.83-2.1-6.44-3-7.69-2.4-3.32-5.41-4.9-6.84-5.53-5.7-2.52-11-1.03-12.47-.56Z"/>
    </g>
  </g>
</svg>